<?xml version="1.0" encoding="UTF-8"?>
<svg version="1.1" xmlns="http://www.w3.org/2000/svg" width="159" height="162">
<path d="M0 0 C1.14405807 -0.00335861 2.28811615 -0.00671722 3.46684265 -0.01017761 C7.2302663 -0.01963979 10.99364529 -0.02162793 14.75708008 -0.02270508 C17.37925739 -0.02591949 20.00143452 -0.0292837 22.62361145 -0.03279114 C28.11007986 -0.03916895 33.5965362 -0.04067516 39.08300781 -0.04003906 C45.41899796 -0.03943706 51.75490331 -0.0500196 58.09087199 -0.06578273 C64.20017484 -0.08043817 70.30943697 -0.08402713 76.41875648 -0.08342934 C79.01312928 -0.08461035 81.60750268 -0.08903891 84.20186424 -0.0967617 C87.82345056 -0.10653824 91.44481653 -0.10369333 95.06640625 -0.09765625 C96.13924866 -0.10327576 97.21209106 -0.10889526 98.31744385 -0.11468506 C99.79971718 -0.10839333 99.79971718 -0.10839333 101.31193542 -0.10197449 C102.16710849 -0.10251925 103.02228155 -0.10306402 103.90336895 -0.1036253 C106.69888239 0.18202579 108.8152492 0.92278763 111.33911133 2.14526367 C113.43312812 5.06984385 113.57619343 7.53726922 113.52197266 11.07128906 C113.51148392 12.0507399 113.50099518 13.03019073 113.4901886 14.0393219 C113.46740341 15.09650925 113.44461823 16.15369659 113.42114258 17.24291992 C113.40323166 18.34639267 113.38532074 19.44986542 113.36686707 20.58677673 C113.3256402 22.93132107 113.27905069 25.27577627 113.22753906 27.62011719 C113.15300073 31.14211333 113.10322437 34.66382599 113.0559082 38.1862793 C112.41660306 75.04488644 102.73475041 107.4820127 76.07885742 134.08984375 C69.0093965 140.76319554 60.81983043 145.49454674 52.33911133 150.14526367 C51.25500977 150.76272461 50.1709082 151.38018555 49.05395508 152.01635742 C41.47562631 156.10641104 33.70089996 158.28510107 25.33911133 160.14526367 C24.32977539 160.37213867 23.32043945 160.59901367 22.28051758 160.83276367 C3.44044774 164.5138628 -21.52786268 162.54299745 -37.93432617 151.63354492 C-41.06273561 149.09889483 -43.14097019 146.9127836 -44.66088867 143.14526367 C-44.93936157 140.0322876 -44.93936157 140.0322876 -44.97973633 136.31420898 C-44.98978195 135.63350845 -44.99982758 134.95280792 -45.01017761 134.2514801 C-45.04112291 131.9921242 -45.05812444 129.73289042 -45.07495117 127.47338867 C-45.09371749 125.8742377 -45.11329468 124.27509606 -45.13363647 122.67596436 C-45.18509163 118.44026579 -45.22453479 114.20453296 -45.26177979 109.96868896 C-45.29322573 106.61209358 -45.33302602 103.25562489 -45.3733387 99.89912605 C-45.50043419 89.31469062 -45.59037395 78.73021531 -45.66088867 68.14526367 C-45.66641502 67.367463 -45.67194138 66.58966232 -45.67763519 65.78829193 C-45.7091011 61.30799507 -45.73362315 56.82776181 -45.7473259 52.34737396 C-45.75439055 50.34828688 -45.76658256 48.34921994 -45.77896118 46.35015869 C-45.79617849 33.65012582 -45.50809037 20.19553673 -36.66088867 10.14526367 C-25.78805432 0.54630925 -13.85166427 -0.00588448 0 0 Z M-17.66088867 37.14526367 C-14.4820283 43.06197498 -11.07688301 48.71090534 -7.28198242 54.25073242 C-6.78803482 54.97843338 -6.29408722 55.70613434 -5.78517151 56.45588684 C-4.22645426 58.75061324 -2.66257794 61.04176473 -1.09838867 63.33276367 C-0.04660162 64.87874633 1.00483346 66.42496851 2.0559082 67.97143555 C3.53851883 70.15264039 5.02160269 72.33350338 6.50746155 74.51249695 C7.38255781 75.79587157 8.25583285 77.08049058 9.12698364 78.36654663 C10.27182999 80.04653276 11.43754661 81.71224157 12.60449219 83.37695312 C14.91644056 87.06663399 15.45144403 90.05894862 15.54443359 94.36303711 C15.57435143 95.59386017 15.57435143 95.59386017 15.60487366 96.84954834 C15.62158615 97.72572815 15.63829865 98.60190796 15.65551758 99.50463867 C15.67629868 100.40901672 15.69707977 101.31339478 15.7184906 102.24517822 C15.78377073 105.12846422 15.84277084 108.01183977 15.90161133 110.89526367 C15.94481703 112.85230411 15.98843198 114.80933555 16.0324707 116.76635742 C16.13943005 121.55923487 16.24075806 126.35220221 16.33911133 131.14526367 C17.60239258 131.30824951 18.86567383 131.47123535 20.16723633 131.63916016 C20.87783203 131.73083969 21.58842773 131.82251923 22.32055664 131.91697693 C24.67200139 132.18291159 26.97373952 132.24472261 29.33911133 132.20776367 C30.10223633 132.19874023 30.86536133 132.1897168 31.65161133 132.18041992 C32.20848633 132.16881836 32.76536133 132.1572168 33.33911133 132.14526367 C34.36983316 127.94796327 34.41207454 124.06731258 34.33129883 119.75463867 C34.31377234 118.30803123 34.29686505 116.86141617 34.28051758 115.41479492 C34.24969949 113.15920433 34.21429182 110.90400497 34.16772461 108.64868164 C33.93930811 96.94811051 34.68272318 88.39148273 41.52661133 78.52026367 C42.15442505 77.60458618 42.15442505 77.60458618 42.79492188 76.67041016 C44.29757021 74.48674554 45.81779622 72.31596402 47.33911133 70.14526367 C49.39854389 67.18914778 51.45645526 64.23197691 53.51416016 61.2746582 C54.91170879 59.26940339 56.31245852 57.26637478 57.71679688 55.26586914 C63.2799343 47.3670722 63.2799343 47.3670722 68.33911133 39.14526367 C67.84411133 38.15526367 67.84411133 38.15526367 67.33911133 37.14526367 C60.94011148 36.43575114 54.48117629 35.86360307 48.33911133 38.14526367 C43.39577896 42.20808838 40.5507701 48.15366755 37.6237793 53.73608398 C35.69644456 57.35047759 33.49646914 60.76848951 31.27661133 64.20776367 C30.73883057 65.09081177 30.73883057 65.09081177 30.19018555 65.99169922 C27.67752584 70.03245884 27.67752584 70.03245884 24.33911133 71.14526367 C24.08363525 70.4559375 23.82815918 69.76661133 23.56494141 69.05639648 C19.25239688 58.81485478 10.87593976 41.72544416 0.38696289 36.74291992 C-5.76732668 35.37843985 -11.52299302 35.94822134 -17.66088867 37.14526367 Z " fill="#002B3A" transform="translate(45.660888671875,-0.145263671875)"/>
<path d="M0 0 C1.32 0.33 2.64 0.66 4 1 C3 4 3 4 0.625 5.3125 C-2.70031168 7.45020037 -3.44820769 9.40266327 -5 13 C-6 15 -7 17 -8 19 C-8.92361355 16.49547736 -9.14843953 15.37279334 -8.14453125 12.8515625 C-7.70496094 12.11679688 -7.26539062 11.38203125 -6.8125 10.625 C-6.35101563 9.84511719 -5.88953125 9.06523438 -5.4140625 8.26171875 C-3.66491409 5.46404767 -1.87816646 2.7129071 0 0 Z " fill="#0E2C35" transform="translate(89,74)"/>
<path d="M0 0 C2.475 0.495 2.475 0.495 5 1 C-1.46026235 5.30684157 -8.30136452 7.42973071 -16 8 C-14.71426358 5.42852716 -13.78645458 5.36852166 -11.125 4.4375 C-10.42632812 4.18871094 -9.72765625 3.93992188 -9.0078125 3.68359375 C-4.03176131 1.9894129 -4.03176131 1.9894129 -1 3 C-0.67 2.01 -0.34 1.02 0 0 Z " fill="#0A2733" transform="translate(88,151)"/>
<path d="M0 0 C0.66 0.33 1.32 0.66 2 1 C0.71034824 2.37562854 -0.62689293 3.70766393 -2 5 C-2.66 5 -3.32 5 -4 5 C-4.33 6.32 -4.66 7.64 -5 9 C-5.66 9 -6.32 9 -7 9 C-7.33 10.32 -7.66 11.64 -8 13 C-8.99 13 -9.98 13 -11 13 C-9.23573074 7.85421466 -6.82580252 4.30414466 -2.375 1.125 C-1.59125 0.75375 -0.8075 0.3825 0 0 Z " fill="#0D2C37" transform="translate(16,5)"/>
<path d="M0 0 C0.33 0 0.66 0 1 0 C1.33 8.25 1.66 16.5 2 25 C2.66 25.33 3.32 25.66 4 26 C3.34 26 2.68 26 2 26 C1.67 27.32 1.34 28.64 1 30 C-0.03974499 26.58934861 -0.11508506 23.47735158 -0.09765625 19.921875 C-0.09443359 18.76171875 -0.09121094 17.6015625 -0.08789062 16.40625 C-0.07951172 15.1996875 -0.07113281 13.993125 -0.0625 12.75 C-0.05798828 11.52796875 -0.05347656 10.3059375 -0.04882812 9.046875 C-0.03704815 6.03120054 -0.02059853 3.01562502 0 0 Z " fill="#011D2F" transform="translate(0,42)"/>
<path d="M0 0 C0 3.83260405 -1.27822311 5.46550865 -3.3125 8.6875 C-3.92738281 9.68136719 -4.54226562 10.67523438 -5.17578125 11.69921875 C-6.07876953 12.83810547 -6.07876953 12.83810547 -7 14 C-7.99 14 -8.98 14 -10 14 C-10 12.68 -10 11.36 -10 10 C-9.4225 9.979375 -8.845 9.95875 -8.25 9.9375 C-5.1209947 8.63374779 -4.41819348 6.63766396 -2.9296875 3.69140625 C-2 2 -2 2 0 0 Z " fill="#0A2A34" transform="translate(84,51)"/>
<path d="M0 0 C0.99 0 1.98 0 3 0 C3.66 1.65 4.32 3.3 5 5 C6.32 5 7.64 5 9 5 C9 5.66 9 6.32 9 7 C9.99 7.33 10.98 7.66 12 8 C11.01 8.33 10.02 8.66 9 9 C6.9921875 7.890625 6.9921875 7.890625 4.875 6.25 C4.17117187 5.71890625 3.46734375 5.1878125 2.7421875 4.640625 C1 3 1 3 0 0 Z " fill="#0D2933" transform="translate(3,145)"/>
<path d="M0 0 C-1 2 -1 2 -4.25 3.125 C-7.37700635 3.85463482 -9.82622905 4.19234975 -13 4 C-13 3.34 -13 2.68 -13 2 C-8.46298506 0.54815522 -4.81938524 -0.23509196 0 0 Z " fill="#08252E" transform="translate(32,1)"/>
<path d="M0 0 C0.66 0 1.32 0 2 0 C2.5775 1.134375 3.155 2.26875 3.75 3.4375 C5.35492635 6.37310297 5.35492635 6.37310297 8.25 7.9375 C9.11625 7.9684375 9.11625 7.9684375 10 8 C9.67 8.99 9.34 9.98 9 11 C8.01 11 7.02 11 6 11 C4.39453125 9.1015625 4.39453125 9.1015625 2.8125 6.625 C2.01779297 5.40683594 2.01779297 5.40683594 1.20703125 4.1640625 C0 2 0 2 0 0 Z " fill="#0C2A32" transform="translate(64,60)"/>
<path d="M0 0 C0.33 0 0.66 0 1 0 C1.04254356 1.99954746 1.04080783 4.00041636 1 6 C0.67 6.33 0.34 6.66 0 7 C0.061875 8.4540625 0.061875 8.4540625 0.125 9.9375 C0.08375 10.948125 0.0425 11.95875 0 13 C-0.99 13.66 -1.98 14.32 -3 15 C-2.5547115 9.72684667 -1.91626837 4.98229776 0 0 Z " fill="#0C2830" transform="translate(4,18)"/>
<path d="M0 0 C1.32 0.33 2.64 0.66 4 1 C3 4 3 4 -0.0625 5.6875 C-1.031875 6.120625 -2.00125 6.55375 -3 7 C-1.125 2.25 -1.125 2.25 0 0 Z " fill="#072531" transform="translate(89,74)"/>
<path d="M0 0 C1 3 1 3 0.328125 4.7890625 C-0.02765625 5.39492187 -0.3834375 6.00078125 -0.75 6.625 C-1.09546875 7.23601562 -1.4409375 7.84703125 -1.796875 8.4765625 C-3 10 -3 10 -6 11 C-4.54955729 6.89041233 -2.48889248 3.56741255 0 0 Z " fill="#0C2C36" transform="translate(96,64)"/>
<path d="M0 0 C0.66 0.33 1.32 0.66 2 1 C-0.52788007 3.79872437 -2.20411134 5.45773019 -6 6 C-5 3 -5 3 -2.5625 1.25 C-1.716875 0.8375 -0.87125 0.425 0 0 Z " fill="#09272F" transform="translate(16,5)"/>
<path d="M0 0 C0.66 0.99 1.32 1.98 2 3 C0.02 3.99 -1.96 4.98 -4 6 C-4.66 4.68 -5.32 3.36 -6 2 C-5.38125 1.855625 -4.7625 1.71125 -4.125 1.5625 C-1.96741678 1.06847775 -1.96741678 1.06847775 0 0 Z " fill="#072532" transform="translate(98,146)"/>
</svg>
