<svg width="130" height="35" viewBox="0 0 163 60" fill="none" xmlns="http://www.w3.org/2000/svg">
    <path fill-rule="evenodd" clip-rule="evenodd" d="M57.0642 39.2634C57.9989 44.0743 58.813 45.8197 61.3044 49.5101C62.1314 50.7354 63.6216 52.3417 64.7495 53.296C66.3603 54.6593 66.2877 54.564 68.0074 55.7304L70.1663 56.9138C74.0841 58.9169 79.798 59.7696 84.0957 58.9347C89.6017 57.8647 92.1711 56.5196 96.0553 53.3153C96.5946 52.8701 97.1018 52.3545 97.5576 51.8783C103.95 45.1984 105.787 35.2162 102.261 26.6197C101.865 25.6537 101.147 23.6331 99.692 23.9158C99.0207 24.0462 98.5543 24.0991 98.0777 24.8547C97.134 26.351 98.9285 27.7763 99.6504 31.4919C100.296 34.8107 100.209 37.4666 99.5457 40.1236C99.0846 41.9706 98.3015 44.1877 97.2534 45.7589C95.7336 48.0379 94.2222 49.9598 91.9122 51.534L90.3913 52.5359C86.7252 54.8815 81.8424 55.5838 77.5995 55.038C72.968 54.4423 68.5483 51.9214 65.5069 48.4155C65.3119 48.1906 65.1561 47.948 64.9592 47.7242C62.2671 44.6636 60.5349 39.2018 60.7628 34.8304C60.8176 33.7781 61.0028 32.0369 61.2848 31.0425C61.4541 30.4454 61.572 29.9196 61.7625 29.3372C62.4318 27.2902 63.3987 25.6522 64.5957 23.8977L66.284 21.9108C66.7239 21.4743 67.129 21.0687 67.583 20.6745C69.9365 18.6317 73.1256 16.9695 76.7132 16.2725C77.4502 16.1293 77.8383 16.1274 78.4816 16.0302C79.0395 15.9463 79.682 15.9966 80.1748 15.9048C82.3995 15.4917 82.4509 11.8266 79.4235 12.0039C74.9432 12.2662 70.3972 13.6102 66.8834 16.2317L65.1868 17.5371C62.142 19.9062 59.5042 23.917 58.1663 27.5873C56.9965 30.7969 56.3052 35.3599 57.0642 39.2634Z" fill="#FFCC29" stroke="#FFCC29" stroke-width="0.755906" stroke-miterlimit="22.9256"></path>
    <path fill-rule="evenodd" clip-rule="evenodd" d="M73.9504 34.3995C73.8382 33.9826 73.9636 33.6972 74.1239 33.4153L79.1291 24.1936C79.6378 23.0949 80.7037 21.4062 81.0699 20.6141C81.2256 20.2784 81.2868 20.1416 81.4717 19.8215L83.0318 16.9864C83.4026 16.1345 84.7523 13.9129 84.9726 13.4069L86.7146 10.1946C87.0204 9.67041 87.184 9.09402 87.59 8.62158L99.8587 15.656C99.7109 16.0918 99.3288 16.5873 99.099 17.025C98.958 17.2934 98.9199 17.4479 98.7551 17.7302C98.6107 17.9778 98.5071 18.1604 98.3639 18.4083L97.2361 20.4685C97.0766 20.7437 97.0463 20.9062 96.8937 21.1749L93.5117 27.3571C93.3435 27.6477 93.3019 27.7577 93.1625 28.0593C92.9512 28.5155 92.633 28.9638 92.3835 29.4173L88.3954 36.8671C88.2831 37.0561 88.1731 37.2421 88.059 37.4348L87.8496 37.6949L87.5344 37.8933L77.5651 43.2855C77.0523 43.4239 76.2559 42.9654 76.118 42.4525L73.9504 34.3995Z" fill="#FFCC29"></path>
    <path fill-rule="evenodd" clip-rule="evenodd" d="M88.8406 6.24016L101.083 13.3204C101.451 12.9122 103.568 8.73123 104.084 7.85174C104.785 6.65741 103.846 5.99789 103.038 5.53338L93.7509 0.222777C93.1715 -0.0240263 93.2433 -0.0648585 92.6443 0.0957714L92.6152 0.103707C91.775 0.329723 91.0316 2.29131 90.5705 3.08123C90.2602 3.61301 89.9654 4.07637 89.7205 4.63914C89.4926 5.16298 89.0125 5.73408 88.8406 6.24016Z" fill="#FFCC29"></path>
    <path d="M110.646 0.236398L124.133 0.175903L124.423 24.8781L145.348 0.175903H160.75L139.245 26.0407L162.348 58.8803H146.801L130.236 35.4858L124.278 41.5886L124.133 58.8803H110.474L110.646 0.236398Z" fill="#FAFCFF"></path>
    <path d="M0 0.193726H25.3176C30.299 0.193726 34.3302 0.923527 37.4117 2.36957C40.4799 3.82923 43.022 5.90873 45.0248 8.6213C47.0275 11.3482 48.4785 14.5015 49.3898 18.1094C50.2885 21.7174 50.7379 25.532 50.7379 29.5667C50.7379 35.8876 50.0704 40.79 48.7223 44.274C47.387 47.7579 45.5256 50.6772 43.1377 53.0183C40.7626 55.3733 38.2076 56.9429 35.4732 57.728C31.7371 58.8021 28.3476 59.3392 25.3176 59.3392H0V0.193726ZM13.4748 13.4054V45.8988H21.2092C24.7786 45.8988 27.3048 45.4804 28.8099 44.6319C30.3088 43.7868 31.4986 42.3071 32.3532 40.1977C33.2062 38.0933 34.2799 34.7556 34.2799 30.0187C34.2799 23.753 32.6778 19.3733 30.7741 17.0629C28.865 14.7464 25.7016 13.6987 21.2863 13.5929L13.4748 13.4054Z" fill="white"></path>
</svg>